HIERARCHY
ROOT Hips
{
	OFFSET 0.00000 0.00000 0.00000
	CHANNELS 6 Xposition Yposition Zposition Zrotation Yrotation Xrotation 
	JOINT LHipJoint
	{
		OFFSET 0 0 0
		CHANNELS 3 Zrotation Yrotation Xrotation
		JOINT LeftUpLeg
		{
			OFFSET 1.59801 -1.77853 0.57028
			CHANNELS 3 Zrotation Yrotation Xrotation
			JOINT LeftLeg
			{
				OFFSET 2.39439 -6.57854 0.00000
				CHANNELS 3 Zrotation Yrotation Xrotation
				JOINT LeftFoot
				{
					OFFSET 2.69334 -7.39989 0.00000
					CHANNELS 3 Zrotation Yrotation Xrotation
					JOINT LeftToeBase
					{
						OFFSET 0.09553 -0.26245 1.73747
						CHANNELS 3 Zrotation Yrotation Xrotation
						End Site
						{
							OFFSET 0.00000 -0.00000 0.89391
						}
					}
				}
			}
		}
	}
	JOINT RHipJoint
	{
		OFFSET 0 0 0
		CHANNELS 3 Zrotation Yrotation Xrotation
		JOINT RightUpLeg
		{
			OFFSET -1.54704 -1.77852 0.57028
			CHANNELS 3 Zrotation Yrotation Xrotation
			JOINT RightLeg
			{
				OFFSET -2.40286 -6.60180 0.00000
				CHANNELS 3 Zrotation Yrotation Xrotation
				JOINT RightFoot
				{
					OFFSET -2.63873 -7.24984 0.00000
					CHANNELS 3 Zrotation Yrotation Xrotation
					JOINT RightToeBase
					{
						OFFSET -0.15631 -0.42945 1.84436
						CHANNELS 3 Zrotation Yrotation Xrotation
						End Site
						{
							OFFSET -0.00000 -0.00000 0.95734
						}
					}
				}
			}
		}
	}
	JOINT LowerBack
	{
		OFFSET 0 0 0
		CHANNELS 3 Zrotation Yrotation Xrotation
		JOINT Spine
		{
			OFFSET -0.00436 1.89866 -0.04018
			CHANNELS 3 Zrotation Yrotation Xrotation
			JOINT Spine1
			{
				OFFSET 0.02031 1.88273 0.09634
				CHANNELS 3 Zrotation Yrotation Xrotation
				JOINT Neck
				{
					OFFSET 0 0 0
					CHANNELS 3 Zrotation Yrotation Xrotation
					JOINT Neck1
					{
						OFFSET -0.13105 1.89371 0.23083
						CHANNELS 3 Zrotation Yrotation Xrotation
						JOINT Head
						{
							OFFSET 0.17062 1.83990 -0.54062
							CHANNELS 3 Zrotation Yrotation Xrotation
							End Site
							{
								OFFSET 0.04576 1.94782 -0.21839
							}
						}
					}
				}
				JOINT LeftShoulder
				{
					OFFSET 0 0 0
					CHANNELS 3 Zrotation Yrotation Xrotation
					JOINT LeftArm
					{
						OFFSET 3.12424 1.09204 0.22226
						CHANNELS 3 Zrotation Yrotation Xrotation
						JOINT LeftForeArm
						{
							OFFSET 5.29277 -0.00000 0.00000
							CHANNELS 3 Zrotation Yrotation Xrotation
							JOINT LeftHand
							{
								OFFSET 2.85226 -0.00000 0.00000
								CHANNELS 3 Zrotation Yrotation Xrotation
								JOINT LeftFingerBase
								{
									OFFSET 0 0 0
									CHANNELS 3 Zrotation Yrotation Xrotation
									JOINT LeftHandIndex1
									{
										OFFSET 0.60210 -0.00000 0.00000
										CHANNELS 3 Zrotation Yrotation Xrotation
										End Site
										{
											OFFSET 0.48543 -0.00000 0.00000
										}
									}
								}
								JOINT LThumb
								{
									OFFSET 0 0 0
									CHANNELS 3 Zrotation Yrotation Xrotation
									End Site
									{
										OFFSET 0.49284 -0.00000 0.49284
									}
								}
							}
						}
					}
				}
				JOINT RightShoulder
				{
					OFFSET 0 0 0
					CHANNELS 3 Zrotation Yrotation Xrotation
					JOINT RightArm
					{
						OFFSET -2.91709 1.01504 0.30199
						CHANNELS 3 Zrotation Yrotation Xrotation
						JOINT RightForeArm
						{
							OFFSET -5.13304 -0.00000 0.00000
							CHANNELS 3 Zrotation Yrotation Xrotation
							JOINT RightHand
							{
								OFFSET -2.74305 -0.00000 0.00000
								CHANNELS 3 Zrotation Yrotation Xrotation
								JOINT RightFingerBase
								{
									OFFSET 0 0 0
									CHANNELS 3 Zrotation Yrotation Xrotation
									JOINT RightHandIndex1
									{
										OFFSET -0.76798 -0.00000 0.00000
										CHANNELS 3 Zrotation Yrotation Xrotation
										End Site
										{
											OFFSET -0.61916 -0.00000 0.00000
										}
									}
								}
								JOINT RThumb
								{
									OFFSET 0 0 0
									CHANNELS 3 Zrotation Yrotation Xrotation
									End Site
									{
										OFFSET -0.62862 -0.00000 0.62862
									}
								}
							}
						}
					}
				}
			}
		}
	}
}
MOTION
Frames: 6
Frame Time: .0083333
-0.0423 17.3454 0.0555 0 0 0 0 0 0 -21 0 0 0 0 0 0 0 0 0 0 0 0 0 0 21 0 0 0 0 0 0 0 0 0 0 0 0 0 0 0 0 0 0 0 0 0 0 -16 0 0 21 0 0 11 0 0 0 -8 0 0 0 0 0 0 0 0 0 0 0 0 0 0 0 0 0 0 0 0 8 0 0 0 0 0 0 0 0 0 0 0 0 0 0 0 0 0
-0.0423 17.3454 0.0555 -1.7926 5.7238 3.3787 0.0000 0.0000 0.0000 -16.4256 -19.5802 -0.0175 1.1334 6.7614 19.0104 0.7704 3.4274 -18.1677 1.6806 -8.1665 -23.2210 0.0000 0.0000 0.0000 21.9309 8.5979 3.3087 -0.3024 -3.5356 9.7737 -0.3189 -7.1416 -15.6068 -1.3045 7.2354 -20.4145 -0.0596 -0.3227 0.6247 1.0229 -0.4304 0.4094 1.0823 -0.2164 0.0770 -18.4480 -11.9102 -8.7276 19.7847 -17.8995 18.3202 7.6202 -8.0535 10.9258 -0.0000 -0.0000 0.0000 -79.9968 -3.6701 36.0166 13.5187 -22.0424 -2.6448 -0.0000 -0.0000 9.4247 0.4465 23.5644 0.1785 -7.1250 0.0000 -0.0000 -28.6974 51.1744 -4.6941 -0.0000 -0.0000 0.0000 80.7640 -1.6680 34.4490 -16.4652 26.1474 -3.8487 0.0000 0.0000 25.2571 -9.6308 13.9160 -2.3370 7.1250 -0.0000 -0.0000 12.1459 -16.0748 8.5033
-0.0465 17.3430 0.0433 -1.7630 5.8302 3.4357 0.0000 0.0000 0.0000 -16.3816 -19.5831 -0.2312 1.1420 6.7862 19.0835 0.7582 3.4621 -18.0596 1.8624 -8.5733 -24.4694 0.0000 0.0000 0.0000 21.8878 8.6446 2.8697 -0.3397 -3.7452 10.3610 -0.3394 -7.1532 -15.8910 -1.3206 7.2782 -20.5423 0.0258 -0.3450 0.7413 1.1059 -0.4595 0.4716 1.1202 -0.2311 0.0759 -18.2866 -11.9416 -8.8217 19.5571 -17.8942 18.3124 7.5000 -8.0503 10.8952 0.0000 0.0000 0.0000 -79.1092 -3.6944 37.7507 14.0734 -22.8395 -2.8565 -0.0000 -0.0000 8.1930 0.0197 23.9536 0.0080 -7.1250 0.0000 -0.0000 -29.3231 51.4453 -5.0190 0.0000 0.0000 0.0000 80.3336 -1.4820 34.9540 -16.6706 26.4215 -3.9397 0.0000 0.0000 24.8830 -9.4795 13.8382 -2.2870 7.1250 -0.0000 -0.0000 12.2510 -16.1606 8.5571
-0.0519 17.3408 0.0327 -1.5998 5.8225 3.4655 0.0000 0.0000 0.0000 -16.5108 -19.5406 -0.3258 1.1408 6.7827 19.0731 0.7539 3.3501 -17.9506 1.7681 -8.3654 -23.8295 0.0000 0.0000 0.0000 21.7090 8.7979 2.4435 -0.3862 -3.9909 11.0511 -0.3659 -7.1209 -16.2044 -1.3243 7.2880 -20.5714 0.0301 -0.2984 0.8720 1.1136 -0.3970 0.5434 1.1257 -0.2000 0.0751 -18.2418 -11.9594 -8.8298 19.5168 -17.9051 18.2687 7.4725 -8.0546 10.8738 -0.0000 0.0000 0.0000 -78.0886 -3.7360 39.5410 14.6947 -23.7190 -3.1021 -0.0000 -0.0000 6.9497 -0.7369 24.6017 -0.3068 -7.1250 0.0000 -0.0000 -30.4195 51.8822 -5.5842 -0.0000 0.0000 0.0000 79.9453 -1.2932 35.3607 -16.8439 26.6516 -4.0171 0.0000 0.0000 24.3049 -9.2815 13.9373 -2.2541 7.1250 -0.0000 -0.0000 12.3816 -16.0745 8.6765
-0.0578 17.3387 0.0230 -1.4748 5.7914 3.4616 0.0000 0.0000 0.0000 -16.6024 -19.4307 -0.4042 1.1416 6.7850 19.0799 0.7659 2.9996 -17.8829 1.5002 -7.7366 -21.9169 0.0000 0.0000 0.0000 21.5707 8.9432 2.1111 -0.4281 -4.1993 11.6380 -0.3914 -7.0433 -16.4556 -1.2866 7.1876 -20.2725 0.0567 -0.2259 0.9656 1.1636 -0.3006 0.6585 1.1614 -0.1522 0.1385 -18.2932 -12.0004 -8.7968 19.5365 -17.9413 18.1487 7.4778 -8.0762 10.8398 -0.0000 -0.0000 0.0000 -77.1164 -3.8162 41.1268 15.3422 -24.6207 -3.3672 -0.0000 -0.0000 5.7956 -1.1492 24.7333 -0.4809 -7.1250 0.0000 -0.0000 -30.8798 51.9265 -5.7189 -0.0000 -0.0000 0.0000 79.4925 -1.0978 35.5939 -17.0526 26.9270 -4.1111 0.0000 0.0000 23.9405 -8.9899 13.9804 -2.1888 7.1250 -0.0000 -0.0000 12.5772 -16.0491 8.8277
-0.0619 17.3362 0.0167 -1.3131 5.8409 3.4473 0.0000 0.0000 0.0000 -16.7568 -19.3648 -0.4216 1.1396 6.7792 19.0630 0.7716 2.7664 -17.8183 1.3690 -7.4051 -20.9213 0.0000 0.0000 0.0000 21.3889 8.9898 1.8072 -0.4700 -4.3971 12.1967 -0.4094 -7.0334 -16.6721 -1.2867 7.1879 -20.2733 0.0716 -0.1858 1.0400 1.2109 -0.2474 0.7524 1.2011 -0.1260 0.1921 -18.2582 -12.0318 -8.7035 19.4458 -17.9639 18.0550 7.4330 -8.0973 10.7778 0.0000 0.0000 0.0000 -76.0192 -3.7688 42.8028 16.1187 -25.6814 -3.6973 -0.0000 -0.0000 4.6219 -1.0816 24.5589 -0.4496 -7.1250 0.0000 -0.0000 -30.7061 51.7878 -5.5703 0.0000 0.0000 0.0000 79.0213 -0.9889 35.7859 -17.3016 27.2537 -4.2245 0.0000 0.0000 23.7329 -8.6538 13.9294 -2.0983 7.1250 -0.0000 -0.0000 12.8063 -16.1187 8.9771
